# xmcd
# Copyright (C) 1995-1998 Ti Kan
#
# Track frame offsets:
#       150
#       18996
#       37876
#       59288
#       71864
#       102966
#       119226
#       136407
#       157438
#       173620
#       186729
#       207678
#       228332
#
# Disc length: 3325 seconds
#
# Revision: 0
# Processed by: cddbd v1.5.2PL0 Copyright (c) Steve Scherf et al.
# Submitted via: CD-Import v1.0
#
DISCID=ca0cfb0d
DTITLE=Dresden Dolls - Yes, Virginia
DYEAR=2006
DGENRE=
TTITLE0=Sex Changes
TTITLE1=Backstabber
TTITLE2=Modern Moonlight
TTITLE3=My Alcoholic Friends
TTITLE4=Delilah
TTITLE5=Delilah
TTITLE6=First Orgasm
TTITLE7=Mrs. O
TTITLE8=Shores Of California
TTITLE9=Mecessary Evil
TTITLE10=Mandy Goes To Med School
TTITLE11=Me and The Minibar
TTITLE12=Sing
EXTD=
EXTT0=
EXTT1=
EXTT2=
EXTT3=
EXTT4=
EXTT5=
EXTT6=
EXTT7=
EXTT8=
EXTT9=
EXTT10=
EXTT11=
EXTT12=
PLAYORDER=
